<mxfile host="app.diagrams.net" modified="2024-04-02T01:06:54.352Z" agent="Mozilla/5.0 (Windows NT 10.0; Win64; x64) AppleWebKit/537.36 (KHTML, like Gecko) Chrome/122.0.0.0 Safari/537.36 OPR/108.0.0.0" version="24.2.1" etag="GWPlbUnqDFwZCaJU7i3e" type="github">
  <diagram name="PÃ¡gina-1" id="sa1TDGSU2sqWV8-P4teU">
    <mxGraphModel>
      <root>
        <mxCell id="0" />
        <mxCell id="1" parent="0" />
      </root>
    </mxGraphModel>
  </diagram>
</mxfile>
